<svg xmlns="http://www.w3.org/2000/svg" xmlns:xlink="http://www.w3.org/1999/xlink" xmlns:serif="http://www.serif.com/" viewBox="0 0 32 40" version="1.1" xml:space="preserve" style="" x="0px" y="0px" fill-rule="evenodd" clip-rule="evenodd" stroke-linejoin="round" stroke-miterlimit="1.41421"><g transform="matrix(1,0,0,1,-192,-256)"><g serif:id="password security" transform="matrix(0.1,0,0,0.1,155,256)"><rect x="370" y="0" width="320" height="320" style="" fill="none"/><g transform="matrix(10,0,0,10,-1870,-10585.2)"><rect x="224" y="1058.52" width="32" height="32" style="" fill="none"/></g><g transform="matrix(10,0,0,10,-1870,-10585.2)"><path d="M252.034,1064.53C251.997,1064.53 251.961,1064.53 251.924,1064.53L245.989,1064.53C245.955,1064.53 245.921,1064.53 245.887,1064.53C245.388,1064.59 245.007,1065.02 245.007,1065.52C245.007,1066.07 245.449,1066.52 245.989,1066.52L248,1066.52L248,1068.52L229.005,1068.52C227.361,1068.52 226,1069.87 226,1071.52L226,1077.52C226,1079.16 227.361,1080.52 229.005,1080.52L248,1080.52L248,1082.51L246,1082.51C245.46,1082.53 245.022,1082.97 245.022,1083.51C245.022,1084.05 245.46,1084.5 246,1084.51L252.001,1084.51C252.008,1084.51 252.015,1084.51 252.022,1084.51C252.571,1084.51 253.022,1084.06 253.022,1083.51C253.022,1082.96 252.571,1082.51 252.022,1082.51C252.015,1082.51 252.008,1082.51 252.001,1082.51L249.999,1082.51L249.999,1080.52L250.995,1080.52C252.639,1080.52 254,1079.16 254,1077.52L254,1071.52C254,1069.87 252.639,1068.52 250.995,1068.52L249.999,1068.52L249.999,1066.52L251.924,1066.52C251.943,1066.52 251.962,1066.52 251.981,1066.52C252.523,1066.52 252.97,1066.07 252.97,1065.52C252.97,1065 252.556,1064.55 252.034,1064.53L252.034,1064.53ZM229.005,1070.52L248,1070.52L248,1078.51L229.005,1078.51C228.434,1078.51 227.999,1078.09 227.999,1077.52L227.999,1071.52C227.999,1070.95 228.434,1070.52 229.005,1070.52ZM249.999,1070.52L250.995,1070.52C251.566,1070.52 252.001,1070.95 252.001,1071.52L252.001,1077.52C252.001,1078.09 251.566,1078.51 250.995,1078.51L249.999,1078.51L249.999,1070.52ZM232.002,1072.52C232.002,1072.52 232.002,1072.52 232.002,1072.52C230.905,1072.52 230.003,1073.42 230.003,1074.52L230.003,1074.52C230.003,1075.62 230.905,1076.52 232.002,1076.52L232.002,1076.52C233.099,1076.52 234.002,1075.62 234.002,1074.52L234.002,1074.52C234.002,1073.42 233.099,1072.52 232.002,1072.52C232.002,1072.52 232.002,1072.52 232.002,1072.52ZM238.001,1072.52C238.001,1072.52 238.001,1072.52 238.001,1072.52C236.904,1072.52 236.001,1073.42 236.001,1074.52L236.001,1074.52C236.001,1075.62 236.904,1076.52 238.001,1076.52L238.001,1076.52C239.097,1076.52 240,1075.62 240,1074.52L240,1074.52C240,1073.42 239.097,1072.52 238.001,1072.52C238.001,1072.52 238.001,1072.52 238.001,1072.52ZM243.999,1072.52C243.999,1072.52 243.999,1072.52 243.999,1072.52C242.902,1072.52 241.999,1073.42 241.999,1074.52L241.999,1074.52C241.999,1075.62 242.902,1076.52 243.999,1076.52L243.999,1076.52C245.096,1076.52 245.998,1075.62 245.998,1074.52L245.998,1074.52C245.998,1073.42 245.096,1072.52 243.999,1072.52C243.999,1072.52 243.999,1072.52 243.999,1072.52Z" style="" fill-rule="nonzero"/></g></g></g><text x="0" y="47" fill="#000000" font-size="5px" font-weight="bold" font-family="'Helvetica Neue', Helvetica, Arial-Unicode, Arial, Sans-serif">Created by Markastudio</text><text x="0" y="52" fill="#000000" font-size="5px" font-weight="bold" font-family="'Helvetica Neue', Helvetica, Arial-Unicode, Arial, Sans-serif">from the Noun Project</text></svg>